<svg width="958" height="776" viewBox="0 0 958 776" fill="none" xmlns="http://www.w3.org/2000/svg">
<path d="M166.549 457.595C142.694 475.483 113.401 485.123 83.2948 484.993C53.1885 484.864 23.984 474.972 0.29248 456.88L36.0132 440.573C37.7144 439.794 39.3471 438.881 40.8949 437.842C41.3647 437.528 41.8346 437.199 42.2823 436.856C46.17 433.959 49.37 430.279 51.664 426.068C53.3982 422.832 54.5503 419.331 55.0702 415.716C55.4287 413.37 55.6102 411.002 55.6134 408.631C55.6134 406.157 55.5473 403.684 55.4592 401.21C55.4079 399.595 55.3638 397.972 55.3418 396.356C55.3124 394.092 55.288 391.826 55.2684 389.557L56.7366 390.272L60.5538 392.195L62.323 392.488L82.7894 395.877L105.634 399.666L106.324 422.543L106.552 430.021L106.662 433.653V433.874L107.396 434.175L115.522 437.392L166.549 457.595Z" fill="#F2A196"/>
<path d="M106.655 433.875C104.132 434.298 101.536 433.906 99.2625 432.76L55.4594 397.894C55.408 396.278 55.364 397.965 55.342 396.35C55.3126 394.086 55.2881 391.82 55.2686 389.551L56.7367 390.266L60.554 392.189L62.3231 392.482L82.7895 395.871L105.634 399.66L106.324 422.537L106.552 430.015L106.662 433.647V433.875H106.655Z" fill="#E88870"/>
<path d="M166.549 457.596C142.694 475.483 113.401 485.124 83.2948 484.994C53.1885 484.865 23.984 474.973 0.29248 456.881L36.0132 440.574C37.7144 439.795 39.3471 438.882 40.8949 437.843C41.3647 437.528 41.8346 437.199 42.2823 436.856C59.5701 448.838 83.1637 456.395 103.571 447.451C108.431 445.307 112.894 441.846 115.537 437.4L166.549 457.596Z" fill="url(#paint0_linear_254_133)"/>
<path d="M153.409 314.414C153.343 314.836 153.263 315.251 153.167 315.665C152.658 317.791 151.84 319.835 150.737 321.735L150.679 321.835C150.26 322.55 149.812 323.265 149.328 323.98C148.042 325.815 146.64 327.57 145.129 329.234L144.226 330.214C143.617 330.879 143 331.529 142.383 332.173C145.65 331.458 148.814 334.425 149.394 337.627C149.974 340.83 148.66 344.062 147.038 346.921C144.197 351.983 140.1 355.35 136.496 359.747C133.795 363.021 132.297 366.896 129.353 370.027L129.133 370.263C121.359 378.213 109.085 380.072 98.8666 383.467C95.1962 384.697 55.3939 395.707 55.3939 398.109C55.3939 397.587 51.4959 393.819 46.5848 389.237C28.9667 372.944 23.1747 347.772 33.6575 326.182C44.9258 302.947 70.5161 286.368 94.8879 278.404C102.508 275.916 111.155 274.243 118.379 277.689C125.602 281.135 129.199 291.823 123.209 297.042C126.977 294.266 131.663 292.94 136.371 293.317C140.72 293.583 144.822 295.379 147.911 298.372C150.358 300.766 152.118 303.744 153.013 307.008C153.677 309.422 153.812 311.946 153.409 314.414Z" fill="#845161"/>
<path d="M153.409 314.413C153.343 314.835 153.262 315.25 153.167 315.664C153.101 315.786 153.035 315.915 152.969 316.058C152.139 317.902 151.757 319.889 150.766 321.734L150.708 321.834C150.289 322.549 149.841 323.264 149.357 323.979C148.084 325.823 146.681 327.579 145.158 329.233L144.226 330.213C143.616 330.878 143 331.528 142.383 332.172C145.65 331.457 148.814 334.424 149.394 337.626C149.974 340.829 148.66 344.061 147.037 346.92C144.196 351.982 140.1 355.349 136.496 359.746C133.794 363.02 132.297 366.895 129.353 370.026C125.935 366.068 123.759 361.236 123.084 356.107C121.88 346.627 122.614 336.297 122.284 326.703C122.078 320.669 120.081 319.553 123.796 314.671C126.783 311.082 130.238 307.888 134.073 305.169C137.068 303.246 140.922 302.946 144.497 303.439C147.612 303.854 150.552 305.09 152.998 307.014C153.666 309.425 153.806 311.946 153.409 314.413Z" fill="#69303A"/>
<path d="M48.0449 381.688C54.9372 381.688 60.5244 376.246 60.5244 369.534C60.5244 362.822 54.9372 357.381 48.0449 357.381C41.1527 357.381 35.5654 362.822 35.5654 369.534C35.5654 376.246 41.1527 381.688 48.0449 381.688Z" fill="#F2A196"/>
<path d="M52.0009 380.414C58.1715 380.414 63.1738 375.542 63.1738 369.533C63.1738 363.524 58.1715 358.652 52.0009 358.652C45.8304 358.652 40.8281 363.524 40.8281 369.533C40.8281 375.542 45.8304 380.414 52.0009 380.414Z" fill="#E88870"/>
<path d="M51.4053 363.467L54.6353 404.216L103.408 431.969C106.782 433.195 110.504 433.155 113.849 431.857C117.195 430.56 119.925 428.098 121.511 424.949C128.529 410.951 139.79 388.846 138.307 380.624C136.104 368.471 130.232 364.181 130.232 364.181C131.049 359.415 131.861 354.664 132.669 349.926C133.594 344.557 134.776 338.952 133.403 333.555C131.839 327.364 127.038 324.726 123.089 320.1C112.694 333.14 95.6047 340.511 80.6807 347.982C72.9875 351.871 51.4053 363.467 51.4053 363.467Z" fill="#F2A196"/>
<path d="M88.229 356.522C92.707 356.522 92.707 363.228 88.229 363.264H88.0235C83.5456 363.264 83.5456 356.558 88.0235 356.522H88.229Z" fill="#00214E"/>
<path d="M125.022 355.528C129.185 355.564 129.185 361.747 125.022 361.783H124.839C120.684 361.783 120.684 355.564 124.839 355.528H125.022Z" fill="#00214E"/>
<path d="M106.882 354.584C106.823 354.834 116.69 380.414 116.69 380.414L103.52 381.036" stroke="#00214E" stroke-width="2.18376" stroke-miterlimit="10"/>
<path d="M75.6992 349.638C82.4952 348.271 89.4851 348.08 96.3491 349.073" stroke="#00214E" stroke-width="2.18376" stroke-miterlimit="10"/>
<path d="M119.046 349.716C123.242 348.768 127.566 348.476 131.856 348.851" stroke="#00214E" stroke-width="2.18376" stroke-miterlimit="10"/>
<path d="M90.0277 388.193C90.1274 388.037 90.2591 387.904 90.4145 387.801C90.57 387.697 90.7458 387.627 90.9307 387.593C91.1157 387.559 91.3058 387.564 91.4891 387.605C91.6723 387.647 91.8446 387.725 91.9951 387.835C93.522 388.879 96.3115 391.095 100.276 391.86C105.678 392.911 110.362 390.802 111.485 392.161C112.116 392.926 111.346 393.855 109.87 395.02C108.324 396.145 106.562 396.958 104.689 397.411C102.816 397.864 100.869 397.948 98.9616 397.658C93.7642 396.707 89.8589 390.845 89.8589 388.765C89.8644 388.563 89.9225 388.366 90.0277 388.193Z" fill="white"/>
<path d="M926.255 464.529C918.437 465.45 911.302 467.416 903.315 467.873C897.303 468.219 891.276 467.575 885.271 467.083C872.186 466.011 859.046 465.643 845.917 465.983C838.781 466.17 831.741 467.81 824.569 467.436C820.789 467.243 818.697 466.336 815.511 464.668C814.395 464.079 804.088 459.483 804.213 459.974C804.712 461.906 809.557 372.922 811.282 357.416C812.677 344.894 815.599 332.282 821.809 321.047C827.902 310.006 838.627 304.129 851.129 300.737C869.657 295.733 890.982 297.712 907.096 308.075C918.841 315.62 925.58 333.493 927.151 346.839C929.801 369.481 929.36 446.587 926.255 464.529Z" fill="url(#paint1_linear_254_133)"/>
<path d="M957.262 461.067C933.408 478.387 904.115 487.721 874.008 487.596C843.902 487.47 814.697 477.893 791.006 460.375L826.727 444.586C827.82 444.098 828.886 443.558 829.92 442.966L830.742 442.481C831.036 442.308 831.322 442.128 831.608 441.941C836.115 439.01 839.808 435.1 842.377 430.541C845.314 425.314 846.283 419.541 846.327 413.658C846.327 409.698 846.099 405.739 846.055 401.772C846.026 399.576 846.001 397.381 845.982 395.189L847.45 395.882L851.267 397.744L873.503 401.309L896.348 404.977L897.038 427.128L897.383 438.114L905.803 441.346L912.409 443.866L957.262 461.067Z" fill="#845161"/>
<path d="M896.878 421.909C889.493 423.146 881.895 422.586 874.804 420.283C858.962 415.264 848.318 403.157 847.29 390.656L851.107 392.518L873.343 396.083L896.188 399.752L896.878 421.909Z" fill="#69303A"/>
<path d="M957.262 461.069C933.408 478.388 904.115 487.722 874.008 487.597C843.902 487.472 814.697 477.894 791.006 460.376L826.727 444.587C827.82 444.099 828.886 443.559 829.92 442.967C847.303 455.019 871.499 462.868 892.361 454.043C898.278 451.537 903.615 447.12 905.788 441.368L912.395 443.888L957.262 461.069Z" fill="url(#paint2_linear_254_133)"/>
<path d="M827.631 384.8C834.523 384.8 840.11 379.531 840.11 373.032C840.11 366.533 834.523 361.265 827.631 361.265C820.739 361.265 815.151 366.533 815.151 373.032C815.151 379.531 820.739 384.8 827.631 384.8Z" fill="#845161"/>
<path d="M832.034 383.415C838.926 383.415 844.513 378.147 844.513 371.647C844.513 365.148 838.926 359.88 832.034 359.88C825.141 359.88 819.554 365.148 819.554 371.647C819.554 378.147 825.141 383.415 832.034 383.415Z" fill="#69303A"/>
<path d="M912.447 355.214C921.066 383.373 902.757 417.423 891.496 417.423C876.081 417.423 838.642 405.808 830.031 377.649C821.42 349.49 832.902 321.635 855.658 315.44C878.415 309.244 903.822 327.048 912.447 355.214Z" fill="#845161"/>
<path d="M886.945 320.66C886.05 323.176 884.958 325.626 883.678 327.99C878.76 337.363 870.054 344.541 861.274 350.646C854.542 355.326 847.326 359.735 839.119 361.341C831.668 362.809 819.108 361.424 814.894 354.364C810.027 346.285 820.767 336.096 825.663 330.718C830.288 325.671 836.55 317.96 843.817 316.271C843.942 316.271 886.394 300.35 886.394 300.35C886.732 305.126 888.178 309.84 888.127 314.644C888.047 316.693 887.649 318.72 886.945 320.66Z" fill="url(#paint3_linear_254_133)"/>
<path d="M885.315 356.53C885.278 356.696 889.382 367.523 891.87 374.057C892.075 374.605 892.139 375.191 892.054 375.766C891.97 376.341 891.741 376.889 891.385 377.364C891.03 377.838 890.56 378.226 890.013 378.493C889.466 378.761 888.86 378.901 888.244 378.903H885.572" stroke="#00214E" stroke-width="2.18376" stroke-miterlimit="10"/>
<path d="M893.729 349.455C898.915 346.963 904.914 346.43 910.502 347.967" stroke="#00214E" stroke-width="2.18376" stroke-miterlimit="10"/>
<path d="M853.272 352.017C856.805 350.32 860.69 349.379 864.653 349.259C868.615 349.139 872.557 349.845 876.198 351.325" stroke="#00214E" stroke-width="2.18376" stroke-miterlimit="10"/>
<path d="M880.103 374.936C879.522 374.995 878.982 375.247 878.579 375.646C878.176 376.045 877.936 376.566 877.901 377.116C877.91 377.387 877.982 377.653 878.113 377.894C878.244 378.135 878.429 378.346 878.657 378.511C878.884 378.677 879.148 378.792 879.428 378.851C879.709 378.909 879.999 378.907 880.279 378.847" stroke="#00214E" stroke-width="2.18376" stroke-miterlimit="10"/>
<path d="M883.392 356.328C885.022 356.328 886.343 355.082 886.343 353.545C886.343 352.008 885.022 350.763 883.392 350.763C881.762 350.763 880.441 352.008 880.441 353.545C880.441 355.082 881.762 356.328 883.392 356.328Z" fill="#FF2609"/>
<path d="M866.235 386.73C866.336 386.58 866.468 386.452 866.623 386.353C866.779 386.253 866.954 386.185 867.139 386.153C867.324 386.12 867.513 386.124 867.696 386.164C867.879 386.204 868.052 386.279 868.203 386.384C869.73 387.395 872.519 389.541 876.483 390.281C881.886 391.299 886.577 389.257 887.693 390.572C888.324 391.313 887.553 392.212 886.078 393.375C884.531 394.465 882.77 395.252 880.897 395.69C879.023 396.129 877.076 396.21 875.169 395.93C869.972 395.009 866.066 389.333 866.066 387.319C866.066 387.112 866.124 386.909 866.235 386.73Z" fill="white"/>
<path d="M864.871 358.848C869.349 358.799 869.481 365.258 865.003 365.376H864.805C860.327 365.424 860.195 358.973 864.673 358.855H864.871V358.848Z" fill="#00214E"/>
<path d="M901.752 357.72C905.907 357.671 906.031 363.659 901.877 363.77H901.686C897.531 363.811 897.406 357.824 901.568 357.713H901.752V357.72Z" fill="#00214E"/>
<path d="M489.243 110.857C457.808 110.857 432.327 86.0418 432.327 55.4286C432.327 24.8154 457.808 0 489.243 0C520.677 0 546.158 24.8154 546.158 55.4286C546.158 86.0418 520.677 110.857 489.243 110.857ZM478.144 49.8857C478.637 47.5282 479.752 45.3363 481.379 43.5257C483.006 41.7152 485.089 40.3483 487.423 39.5597C489.757 38.7711 492.261 38.5878 494.69 39.0281C497.119 39.4683 499.388 40.5167 501.275 42.0703L510.95 35.7902C507.626 32.2636 503.329 29.7433 498.574 28.53C493.819 27.3168 488.805 27.4619 484.133 28.9481C479.46 30.4343 475.325 33.1987 472.221 36.9113C469.118 40.624 467.177 45.128 466.63 49.8857H460.785V60.9714H466.63C467.176 65.7303 469.116 70.2357 472.22 73.9495C475.324 77.6632 479.46 80.4284 484.134 81.9147C488.808 83.4011 493.823 83.5457 498.579 82.3315C503.335 81.1172 507.632 78.5952 510.956 75.0669L501.275 68.7813C499.388 70.3349 497.119 71.3833 494.69 71.8236C492.261 72.2638 489.757 72.0805 487.423 71.2919C485.089 70.5033 483.006 69.1365 481.379 67.3259C479.752 65.5153 478.637 63.3234 478.144 60.9659H506.317V49.8802H478.144V49.8857Z" fill="black"/>
<path d="M489.243 776C457.808 776 432.327 751.185 432.327 720.571C432.327 689.958 457.808 665.143 489.243 665.143C520.677 665.143 546.158 689.958 546.158 720.571C546.158 751.185 520.677 776 489.243 776ZM478.144 715.029C478.637 712.671 479.752 710.479 481.379 708.669C483.006 706.858 485.089 705.491 487.423 704.703C489.757 703.914 492.261 703.731 494.69 704.171C497.119 704.611 499.388 705.66 501.275 707.213L510.95 700.933C507.626 697.407 503.329 694.886 498.574 693.673C493.819 692.46 488.805 692.605 484.133 694.091C479.46 695.577 475.325 698.342 472.221 702.054C469.118 705.767 467.177 710.271 466.63 715.029H460.785V726.114H466.63C467.176 730.873 469.116 735.379 472.22 739.092C475.324 742.806 479.46 745.571 484.134 747.058C488.808 748.544 493.823 748.689 498.579 747.474C503.335 746.26 507.632 743.738 510.956 740.21L501.275 733.924C499.388 735.478 497.119 736.526 494.69 736.966C492.261 737.407 489.757 737.223 487.423 736.435C485.089 735.646 483.006 734.279 481.379 732.469C479.752 730.658 478.637 728.466 478.144 726.109H506.317V715.023H478.144V715.029Z" fill="black"/>
<path d="M109.465 103.5L112.449 103.821L109.465 103.5ZM159.604 58.9165L159.628 55.9206L159.628 55.9206L159.604 58.9165ZM413.419 61.035C414.602 59.865 414.617 57.9681 413.454 56.7981L394.49 37.7324C393.327 36.5624 391.425 36.5624 390.242 37.7324C389.059 38.9024 389.044 40.7993 390.208 41.9692L407.064 58.9166L389.934 75.8639C388.751 77.0338 388.736 78.9307 389.9 80.1007C391.063 81.2707 392.965 81.2707 394.148 80.1007L413.419 61.035ZM93.8187 264.299L112.449 103.821L106.481 103.18L87.8505 263.658L93.8187 264.299ZM159.58 61.9124L411.288 61.9124L411.336 55.9207L159.628 55.9206L159.58 61.9124ZM112.449 103.821C115.216 79.9831 135.539 61.9124 159.58 61.9124L159.628 55.9206C132.518 55.9206 109.601 76.2982 106.481 103.18L112.449 103.821Z" fill="black"/>
<path d="M865.493 679.699L868.483 679.954L865.493 679.699ZM815.382 725.421L815.365 728.419L815.382 725.421ZM566.814 723.301C565.635 724.472 565.624 726.37 566.79 727.541L585.785 746.62C586.95 747.791 588.851 747.791 590.03 746.62C591.209 745.449 591.22 743.551 590.054 742.38L573.17 725.421L590.248 708.461C591.427 707.29 591.438 705.392 590.272 704.221C589.106 703.05 587.206 703.05 586.027 704.221L566.814 723.301ZM879.229 495.846L862.504 679.444L868.483 679.954L885.208 496.355L879.229 495.846ZM815.399 722.423L568.942 722.423L568.907 728.419L815.365 728.419L815.399 722.423ZM862.504 679.444C860.29 703.75 839.824 722.423 815.399 722.423L815.365 728.419C842.907 728.419 865.986 707.362 868.483 679.954L862.504 679.444Z" fill="black"/>
<path d="M127.296 725.421L127.275 728.418L127.296 725.421ZM77.7402 672.117L74.7453 671.915L77.7402 672.117ZM93.11 494.803C92.0276 493.557 90.1314 493.429 88.8746 494.518L68.3946 512.265C67.1378 513.354 66.9964 515.247 68.0788 516.494C69.1611 517.74 71.0574 517.868 72.3141 516.779L90.5186 501.004L106.197 519.057C107.279 520.304 109.175 520.431 110.432 519.342C111.689 518.253 111.83 516.36 110.748 515.114L93.11 494.803ZM413.14 722.421L127.318 722.424L127.275 728.418L413.097 728.415L413.14 722.421ZM80.735 672.318L93.8293 496.977L87.8396 496.574L74.7453 671.915L80.735 672.318ZM127.318 722.424C100.089 722.424 78.7104 699.429 80.735 672.318L74.7453 671.915C72.4623 702.487 96.57 728.418 127.275 728.418L127.318 722.424Z" fill="black"/>
<path d="M831.407 64.6953L831.303 67.6899L831.407 64.6953ZM879.727 115.567L876.724 115.509L879.727 115.567ZM872.822 288.326C873.962 289.518 875.864 289.555 877.069 288.408L896.709 269.715C897.914 268.568 897.967 266.671 896.826 265.479C895.686 264.287 893.784 264.25 892.579 265.398L875.121 282.013L858.601 264.744C857.461 263.552 855.559 263.516 854.354 264.663C853.149 265.81 853.096 267.706 854.237 268.898L872.822 288.326ZM578.03 61.0407L831.303 67.6899L831.511 61.7008L578.238 55.0516L578.03 61.0407ZM876.724 115.509L872.001 286.191L878.007 286.307L882.731 115.625L876.724 115.509ZM831.303 67.6899C857.153 68.3685 877.438 89.7236 876.724 115.509L882.731 115.625C883.535 86.5473 860.662 62.4661 831.511 61.7008L831.303 67.6899Z" fill="black"/>
<g filter="url(#filter0_d_254_133)">
<rect x="279.5" y="296.5" width="418.5" height="204" rx="27.5" stroke="url(#paint4_linear_254_133)" stroke-width="5" shape-rendering="crispEdges"/>
</g>
<path d="M334.62 432V426.195H345.465V459H338.985V432H334.62ZM351.779 434.835C351.929 431.835 352.979 429.525 354.929 427.905C356.909 426.255 359.504 425.43 362.714 425.43C364.904 425.43 366.779 425.82 368.339 426.6C369.899 427.35 371.069 428.385 371.849 429.705C372.659 430.995 373.064 432.465 373.064 434.115C373.064 436.005 372.569 437.61 371.579 438.93C370.619 440.22 369.464 441.09 368.114 441.54V441.72C369.854 442.26 371.204 443.22 372.164 444.6C373.154 445.98 373.649 447.75 373.649 449.91C373.649 451.71 373.229 453.315 372.389 454.725C371.579 456.135 370.364 457.245 368.744 458.055C367.154 458.835 365.234 459.225 362.984 459.225C359.594 459.225 356.834 458.37 354.704 456.66C352.574 454.95 351.449 452.43 351.329 449.1H357.449C357.509 450.57 358.004 451.755 358.934 452.655C359.894 453.525 361.199 453.96 362.849 453.96C364.379 453.96 365.549 453.54 366.359 452.7C367.199 451.83 367.619 450.72 367.619 449.37C367.619 447.57 367.049 446.28 365.909 445.5C364.769 444.72 362.999 444.33 360.599 444.33H359.294V439.155H360.599C364.859 439.155 366.989 437.73 366.989 434.88C366.989 433.59 366.599 432.585 365.819 431.865C365.069 431.145 363.974 430.785 362.534 430.785C361.124 430.785 360.029 431.175 359.249 431.955C358.499 432.705 358.064 433.665 357.944 434.835H351.779ZM391.33 451.89C394.21 449.49 396.505 447.495 398.215 445.905C399.925 444.285 401.35 442.605 402.49 440.865C403.63 439.125 404.2 437.415 404.2 435.735C404.2 434.205 403.84 433.005 403.12 432.135C402.4 431.265 401.29 430.83 399.79 430.83C398.29 430.83 397.135 431.34 396.325 432.36C395.515 433.35 395.095 434.715 395.065 436.455H388.945C389.065 432.855 390.13 430.125 392.14 428.265C394.18 426.405 396.76 425.475 399.88 425.475C403.3 425.475 405.925 426.39 407.755 428.22C409.585 430.02 410.5 432.405 410.5 435.375C410.5 437.715 409.87 439.95 408.61 442.08C407.35 444.21 405.91 446.07 404.29 447.66C402.67 449.22 400.555 451.11 397.945 453.33H411.22V458.55H388.99V453.87L391.33 451.89ZM437.24 431.64H422.66V439.335C423.29 438.555 424.19 437.925 425.36 437.445C426.53 436.935 427.775 436.68 429.095 436.68C431.495 436.68 433.46 437.205 434.99 438.255C436.52 439.305 437.63 440.655 438.32 442.305C439.01 443.925 439.355 445.665 439.355 447.525C439.355 450.975 438.365 453.75 436.385 455.85C434.435 457.95 431.645 459 428.015 459C424.595 459 421.865 458.145 419.825 456.435C417.785 454.725 416.63 452.49 416.36 449.73H422.48C422.75 450.93 423.35 451.89 424.28 452.61C425.24 453.33 426.455 453.69 427.925 453.69C429.695 453.69 431.03 453.135 431.93 452.025C432.83 450.915 433.28 449.445 433.28 447.615C433.28 445.755 432.815 444.345 431.885 443.385C430.985 442.395 429.65 441.9 427.88 441.9C426.62 441.9 425.57 442.215 424.73 442.845C423.89 443.475 423.29 444.315 422.93 445.365H416.9V426.105H437.24V431.64ZM461.16 434.385C460.86 433.125 460.335 432.18 459.585 431.55C458.865 430.92 457.815 430.605 456.435 430.605C454.365 430.605 452.835 431.445 451.845 433.125C450.885 434.775 450.39 437.475 450.36 441.225C451.08 440.025 452.13 439.095 453.51 438.435C454.89 437.745 456.39 437.4 458.01 437.4C459.96 437.4 461.685 437.82 463.185 438.66C464.685 439.5 465.855 440.73 466.695 442.35C467.535 443.94 467.955 445.86 467.955 448.11C467.955 450.24 467.52 452.145 466.65 453.825C465.81 455.475 464.565 456.765 462.915 457.695C461.265 458.625 459.3 459.09 457.02 459.09C453.9 459.09 451.44 458.4 449.64 457.02C447.87 455.64 446.625 453.72 445.905 451.26C445.215 448.77 444.87 445.71 444.87 442.08C444.87 436.59 445.815 432.45 447.705 429.66C449.595 426.84 452.58 425.43 456.66 425.43C459.81 425.43 462.255 426.285 463.995 427.995C465.735 429.705 466.74 431.835 467.01 434.385H461.16ZM456.57 442.575C454.98 442.575 453.645 443.04 452.565 443.97C451.485 444.9 450.945 446.25 450.945 448.02C450.945 449.79 451.44 451.185 452.43 452.205C453.45 453.225 454.875 453.735 456.705 453.735C458.325 453.735 459.6 453.24 460.53 452.25C461.49 451.26 461.97 449.925 461.97 448.245C461.97 446.505 461.505 445.125 460.575 444.105C459.675 443.085 458.34 442.575 456.57 442.575ZM480.539 452.385L475.274 465.03H471.224L474.149 452.385H480.539ZM497.062 451.89C499.942 449.49 502.237 447.495 503.947 445.905C505.657 444.285 507.082 442.605 508.222 440.865C509.362 439.125 509.932 437.415 509.932 435.735C509.932 434.205 509.572 433.005 508.852 432.135C508.132 431.265 507.022 430.83 505.522 430.83C504.022 430.83 502.867 431.34 502.057 432.36C501.247 433.35 500.827 434.715 500.797 436.455H494.677C494.797 432.855 495.862 430.125 497.872 428.265C499.912 426.405 502.492 425.475 505.612 425.475C509.032 425.475 511.657 426.39 513.487 428.22C515.317 430.02 516.232 432.405 516.232 435.375C516.232 437.715 515.602 439.95 514.342 442.08C513.082 444.21 511.642 446.07 510.022 447.66C508.402 449.22 506.287 451.11 503.677 453.33H516.952V458.55H494.722V453.87L497.062 451.89ZM520.652 452.61V447.66L535.367 426.6H542.702V447.12H546.662V452.61H542.702V459H536.402V452.61H520.652ZM536.807 433.35L527.582 447.12H536.807V433.35ZM568.416 432.675V440.55H578.991V445.545H568.416V453.87H580.341V459H562.116V427.545H580.341V432.675H568.416ZM592.276 427.59V447.03C592.276 449.16 592.831 450.795 593.941 451.935C595.051 453.045 596.611 453.6 598.621 453.6C600.661 453.6 602.236 453.045 603.346 451.935C604.456 450.795 605.011 449.16 605.011 447.03V427.59H611.356V446.985C611.356 449.655 610.771 451.92 609.601 453.78C608.461 455.61 606.916 456.99 604.966 457.92C603.046 458.85 600.901 459.315 598.531 459.315C596.191 459.315 594.061 458.85 592.141 457.92C590.251 456.99 588.751 455.61 587.641 453.78C586.531 451.92 585.976 449.655 585.976 446.985V427.59H592.276ZM633.643 459L626.713 446.76H623.743V459H617.443V427.59H629.233C631.663 427.59 633.733 428.025 635.443 428.895C637.153 429.735 638.428 430.89 639.268 432.36C640.138 433.8 640.573 435.42 640.573 437.22C640.573 439.29 639.973 441.165 638.773 442.845C637.573 444.495 635.788 445.635 633.418 446.265L640.933 459H633.643ZM623.743 442.035H629.008C630.718 442.035 631.993 441.63 632.833 440.82C633.673 439.98 634.093 438.825 634.093 437.355C634.093 435.915 633.673 434.805 632.833 434.025C631.993 433.215 630.718 432.81 629.008 432.81H623.743V442.035Z" fill="url(#paint5_linear_254_133)"/>
<path d="M440.47 370.3C440.47 367.416 441.114 364.84 442.402 362.572C443.718 360.276 445.496 358.498 447.736 357.238C450.004 355.95 452.538 355.306 455.338 355.306C458.614 355.306 461.484 356.146 463.948 357.826C466.412 359.506 468.134 361.83 469.114 364.798H462.352C461.68 363.398 460.728 362.348 459.496 361.648C458.292 360.948 456.892 360.598 455.296 360.598C453.588 360.598 452.062 361.004 450.718 361.816C449.402 362.6 448.366 363.72 447.61 365.176C446.882 366.632 446.518 368.34 446.518 370.3C446.518 372.232 446.882 373.94 447.61 375.424C448.366 376.88 449.402 378.014 450.718 378.826C452.062 379.61 453.588 380.002 455.296 380.002C456.892 380.002 458.292 379.652 459.496 378.952C460.728 378.224 461.68 377.16 462.352 375.76H469.114C468.134 378.756 466.412 381.094 463.948 382.774C461.512 384.426 458.642 385.252 455.338 385.252C452.538 385.252 450.004 384.622 447.736 383.362C445.496 382.074 443.718 380.296 442.402 378.028C441.114 375.76 440.47 373.184 440.47 370.3ZM495.766 372.862C495.766 373.702 495.71 374.458 495.598 375.13H478.588C478.728 376.81 479.316 378.126 480.352 379.078C481.388 380.03 482.662 380.506 484.174 380.506C486.358 380.506 487.912 379.568 488.836 377.692H495.178C494.506 379.932 493.218 381.78 491.314 383.236C489.41 384.664 487.072 385.378 484.3 385.378C482.06 385.378 480.044 384.888 478.252 383.908C476.488 382.9 475.102 381.486 474.094 379.666C473.114 377.846 472.624 375.746 472.624 373.366C472.624 370.958 473.114 368.844 474.094 367.024C475.074 365.204 476.446 363.804 478.21 362.824C479.974 361.844 482.004 361.354 484.3 361.354C486.512 361.354 488.486 361.83 490.222 362.782C491.986 363.734 493.344 365.092 494.296 366.856C495.276 368.592 495.766 370.594 495.766 372.862ZM489.676 371.182C489.648 369.67 489.102 368.466 488.038 367.57C486.974 366.646 485.672 366.184 484.132 366.184C482.676 366.184 481.444 366.632 480.436 367.528C479.456 368.396 478.854 369.614 478.63 371.182H489.676ZM505.938 353.92V385H500.058V353.92H505.938ZM525.524 385L517.628 375.088V385H511.748V353.92H517.628V371.602L525.44 361.732H533.084L522.836 373.408L533.168 385H525.524ZM557.905 372.862C557.905 373.702 557.849 374.458 557.737 375.13H540.727C540.867 376.81 541.455 378.126 542.491 379.078C543.527 380.03 544.801 380.506 546.313 380.506C548.497 380.506 550.051 379.568 550.975 377.692H557.317C556.645 379.932 555.357 381.78 553.453 383.236C551.549 384.664 549.211 385.378 546.439 385.378C544.199 385.378 542.183 384.888 540.391 383.908C538.627 382.9 537.241 381.486 536.233 379.666C535.253 377.846 534.763 375.746 534.763 373.366C534.763 370.958 535.253 368.844 536.233 367.024C537.213 365.204 538.585 363.804 540.349 362.824C542.113 361.844 544.143 361.354 546.439 361.354C548.651 361.354 550.625 361.83 552.361 362.782C554.125 363.734 555.483 365.092 556.435 366.856C557.415 368.592 557.905 370.594 557.905 372.862ZM551.815 371.182C551.787 369.67 551.241 368.466 550.177 367.57C549.113 366.646 547.811 366.184 546.271 366.184C544.815 366.184 543.583 366.632 542.575 367.528C541.595 368.396 540.993 369.614 540.769 371.182H551.815ZM591.093 361.396C593.949 361.396 596.245 362.278 597.981 364.042C599.745 365.778 600.627 368.214 600.627 371.35V385H594.747V372.148C594.747 370.328 594.285 368.942 593.361 367.99C592.437 367.01 591.177 366.52 589.581 366.52C587.985 366.52 586.711 367.01 585.759 367.99C584.835 368.942 584.373 370.328 584.373 372.148V385H578.493V372.148C578.493 370.328 578.031 368.942 577.107 367.99C576.183 367.01 574.923 366.52 573.327 366.52C571.703 366.52 570.415 367.01 569.463 367.99C568.539 368.942 568.077 370.328 568.077 372.148V385H562.197V361.732H568.077V364.546C568.833 363.566 569.799 362.796 570.975 362.236C572.179 361.676 573.495 361.396 574.923 361.396C576.743 361.396 578.367 361.788 579.795 362.572C581.223 363.328 582.329 364.42 583.113 365.848C583.869 364.504 584.961 363.426 586.389 362.614C587.845 361.802 589.413 361.396 591.093 361.396ZM608.811 385.294C607.747 385.294 606.865 384.972 606.165 384.328C605.493 383.656 605.157 382.83 605.157 381.85C605.157 380.87 605.493 380.058 606.165 379.414C606.865 378.742 607.747 378.406 608.811 378.406C609.847 378.406 610.701 378.742 611.373 379.414C612.045 380.058 612.381 380.87 612.381 381.85C612.381 382.83 612.045 383.656 611.373 384.328C610.701 384.972 609.847 385.294 608.811 385.294ZM608.811 367.906C607.747 367.906 606.865 367.584 606.165 366.94C605.493 366.268 605.157 365.442 605.157 364.462C605.157 363.482 605.493 362.67 606.165 362.026C606.865 361.354 607.747 361.018 608.811 361.018C609.847 361.018 610.701 361.354 611.373 362.026C612.045 362.67 612.381 363.482 612.381 364.462C612.381 365.442 612.045 366.268 611.373 366.94C610.701 367.584 609.847 367.906 608.811 367.906Z" fill="url(#paint6_linear_254_133)"/>
<path d="M344 401.898C363.701 401.881 383.316 404.554 402.327 409.844C405.012 410.593 407.692 408.551 407.692 405.699V401.898M349.538 348V350.837C349.538 351.589 349.247 352.311 348.727 352.843C348.208 353.375 347.504 353.673 346.769 353.673H344M344 353.673V352.255C344 349.906 345.861 348 348.154 348H410.462M344 353.673V387.714M410.462 348V350.837C410.462 352.403 411.702 353.673 413.231 353.673H416M410.462 348H411.846C414.139 348 416 349.906 416 352.255V389.132C416 391.481 414.139 393.387 411.846 393.387H410.462M344 387.714V389.132C344 390.261 344.438 391.343 345.217 392.141C345.996 392.939 347.052 393.387 348.154 393.387H349.538M344 387.714H346.769C347.504 387.714 348.208 388.013 348.727 388.545C349.247 389.077 349.538 389.798 349.538 390.551V393.387M410.462 393.387V390.551C410.462 389.798 410.753 389.077 411.273 388.545C411.792 388.013 412.496 387.714 413.231 387.714H416M410.462 393.387H349.538M391.077 370.694C391.077 373.703 389.91 376.589 387.833 378.717C385.755 380.845 382.938 382.041 380 382.041C377.062 382.041 374.245 380.845 372.167 378.717C370.09 376.589 368.923 373.703 368.923 370.694C368.923 367.684 370.09 364.798 372.167 362.67C374.245 360.542 377.062 359.347 380 359.347C382.938 359.347 385.755 360.542 387.833 362.67C389.91 364.798 391.077 367.684 391.077 370.694ZM402.154 370.694H402.183V370.724H402.154V370.694ZM357.846 370.694H357.876V370.724H357.846V370.694Z" stroke="url(#paint7_linear_254_133)" stroke-width="5" stroke-linecap="round" stroke-linejoin="round"/>
<defs>
<filter id="filter0_d_254_133" x="273" y="292" width="431.5" height="217" filterUnits="userSpaceOnUse" color-interpolation-filters="sRGB">
<feFlood flood-opacity="0" result="BackgroundImageFix"/>
<feColorMatrix in="SourceAlpha" type="matrix" values="0 0 0 0 0 0 0 0 0 0 0 0 0 0 0 0 0 0 127 0" result="hardAlpha"/>
<feOffset dy="2"/>
<feGaussianBlur stdDeviation="2"/>
<feComposite in2="hardAlpha" operator="out"/>
<feColorMatrix type="matrix" values="0 0 0 0 0 0 0 0 0 0 0 0 0 0 0 0 0 0 0.4 0"/>
<feBlend mode="normal" in2="BackgroundImageFix" result="effect1_dropShadow_254_133"/>
<feBlend mode="normal" in="SourceGraphic" in2="effect1_dropShadow_254_133" result="shape"/>
</filter>
<linearGradient id="paint0_linear_254_133" x1="0.29248" y1="460.92" x2="166.549" y2="460.92" gradientUnits="userSpaceOnUse">
<stop stop-color="#16243F"/>
<stop offset="1" stop-color="#6878B1"/>
</linearGradient>
<linearGradient id="paint1_linear_254_133" x1="804.213" y1="383.042" x2="928.898" y2="383.042" gradientUnits="userSpaceOnUse">
<stop stop-color="#16243F"/>
<stop offset="1" stop-color="#6878B1"/>
</linearGradient>
<linearGradient id="paint2_linear_254_133" x1="782.579" y1="485.926" x2="933.559" y2="441.534" gradientUnits="userSpaceOnUse">
<stop stop-color="#315676"/>
<stop offset="1" stop-color="#E1B9E0"/>
</linearGradient>
<linearGradient id="paint3_linear_254_133" x1="822.015" y1="317.475" x2="893.927" y2="349.274" gradientUnits="userSpaceOnUse">
<stop stop-color="#16243F"/>
<stop offset="1" stop-color="#6878B1"/>
</linearGradient>
<linearGradient id="paint4_linear_254_133" x1="277" y1="399.535" x2="700.5" y2="399.535" gradientUnits="userSpaceOnUse">
<stop stop-color="#E727FF" stop-opacity="0.4"/>
<stop offset="1" stop-color="#9747FF" stop-opacity="0.4"/>
</linearGradient>
<linearGradient id="paint5_linear_254_133" x1="333" y1="437.5" x2="645" y2="437.5" gradientUnits="userSpaceOnUse">
<stop stop-color="#E727FF" stop-opacity="0.6"/>
<stop offset="1" stop-color="#9747FF" stop-opacity="0.6"/>
</linearGradient>
<linearGradient id="paint6_linear_254_133" x1="439" y1="372" x2="632" y2="372" gradientUnits="userSpaceOnUse">
<stop stop-color="#E727FF" stop-opacity="0.6"/>
<stop offset="1" stop-color="#9747FF" stop-opacity="0.6"/>
</linearGradient>
<linearGradient id="paint7_linear_254_133" x1="344.554" y1="378.637" x2="417.662" y2="378.637" gradientUnits="userSpaceOnUse">
<stop stop-color="#E727FF" stop-opacity="0.6"/>
<stop offset="0.0001" stop-color="#E727FF" stop-opacity="0.6"/>
<stop offset="1" stop-color="#9747FF" stop-opacity="0.6"/>
</linearGradient>
</defs>
</svg>
